<svg width="164" height="43" viewBox="0 0 164 43" fill="none" xmlns="http://www.w3.org/2000/svg">
<g filter="url(#filter0_d_16_24)">
<path d="M14 0L20.0622 6.75H7.93782L14 0Z" fill="#F1F1F1"/>
</g>
<path d="M0 8C0 6.89543 0.89543 6 2 6H162C163.105 6 164 6.89543 164 8V24C164 25.1046 163.105 26 162 26H2C0.895429 26 0 25.1046 0 24V8Z" fill="#F1F1F1"/>
<rect x="10" y="10" width="11" height="10" rx="1" fill="#004FAA"/>
<rect x="14.5179" y="11.4286" width="1.96429" height="5" fill="white"/>
<ellipse cx="15.5" cy="17.8571" rx="0.982143" ry="0.714286" fill="white"/>
<path opacity="0.8" d="M26.7045 18V12.1818H28.6705C29.1269 12.1818 29.5 12.2642 29.7898 12.429C30.0814 12.5919 30.2973 12.8125 30.4375 13.0909C30.5777 13.3693 30.6477 13.6799 30.6477 14.0227C30.6477 14.3655 30.5777 14.6771 30.4375 14.9574C30.2992 15.2377 30.0852 15.4612 29.7955 15.6278C29.5057 15.7926 29.1345 15.875 28.6818 15.875H27.2727V15.25H28.6591C28.9716 15.25 29.2225 15.196 29.4119 15.0881C29.6013 14.9801 29.7386 14.8343 29.8239 14.6506C29.911 14.465 29.9545 14.2557 29.9545 14.0227C29.9545 13.7898 29.911 13.5814 29.8239 13.3977C29.7386 13.214 29.6004 13.0701 29.4091 12.9659C29.2178 12.8598 28.964 12.8068 28.6477 12.8068H27.4091V18H26.7045ZM32.3622 12.1818V18H31.6918V12.1818H32.3622ZM35.4197 18.0909C34.9993 18.0909 34.6366 17.9981 34.3317 17.8125C34.0286 17.625 33.7947 17.3636 33.63 17.0284C33.4671 16.6913 33.3857 16.2992 33.3857 15.8523C33.3857 15.4053 33.4671 15.0114 33.63 14.6705C33.7947 14.3277 34.0239 14.0606 34.3175 13.8693C34.6129 13.6761 34.9576 13.5795 35.3516 13.5795C35.5788 13.5795 35.8033 13.6174 36.0249 13.6932C36.2464 13.7689 36.4482 13.892 36.63 14.0625C36.8118 14.2311 36.9567 14.4545 37.0646 14.733C37.1726 15.0114 37.2266 15.3542 37.2266 15.7614V16.0455H33.8629V15.4659H36.5447C36.5447 15.2197 36.4955 15 36.397 14.8068C36.3004 14.6136 36.1622 14.4612 35.9822 14.3494C35.8042 14.2377 35.594 14.1818 35.3516 14.1818C35.0845 14.1818 34.8535 14.2481 34.6584 14.3807C34.4652 14.5114 34.3165 14.6818 34.2124 14.892C34.1082 15.1023 34.0561 15.3277 34.0561 15.5682V15.9545C34.0561 16.2841 34.1129 16.5634 34.2266 16.7926C34.3421 17.0199 34.5021 17.1932 34.7067 17.3125C34.9112 17.4299 35.1489 17.4886 35.4197 17.4886C35.5959 17.4886 35.755 17.464 35.897 17.4148C36.041 17.3636 36.165 17.2879 36.2692 17.1875C36.3733 17.0852 36.4538 16.9583 36.5107 16.8068L37.1584 16.9886C37.0902 17.2083 36.9756 17.4015 36.8146 17.5682C36.6536 17.733 36.4548 17.8617 36.218 17.9545C35.9813 18.0455 35.7152 18.0909 35.4197 18.0909ZM39.5305 18.1023C39.254 18.1023 39.0031 18.0502 38.7777 17.946C38.5523 17.84 38.3733 17.6875 38.2408 17.4886C38.1082 17.2879 38.0419 17.0455 38.0419 16.7614C38.0419 16.5114 38.0911 16.3087 38.1896 16.1534C38.2881 15.9962 38.4197 15.8731 38.5845 15.7841C38.7493 15.6951 38.9311 15.6288 39.13 15.5852C39.3307 15.5398 39.5324 15.5038 39.7351 15.4773C40.0002 15.4432 40.2152 15.4176 40.38 15.4006C40.5466 15.3816 40.6679 15.3504 40.7436 15.3068C40.8213 15.2633 40.8601 15.1875 40.8601 15.0795V15.0568C40.8601 14.7765 40.7834 14.5587 40.63 14.4034C40.4785 14.2481 40.2483 14.1705 39.9396 14.1705C39.6196 14.1705 39.3686 14.2405 39.1868 14.3807C39.005 14.5208 38.8771 14.6705 38.8033 14.8295L38.1669 14.6023C38.2805 14.3371 38.4321 14.1307 38.6214 13.983C38.8127 13.8333 39.0211 13.7292 39.2464 13.6705C39.4737 13.6098 39.6972 13.5795 39.9169 13.5795C40.0571 13.5795 40.218 13.5966 40.3999 13.6307C40.5836 13.6629 40.7607 13.7301 40.9311 13.8324C41.1035 13.9347 41.2464 14.089 41.3601 14.2955C41.4737 14.5019 41.5305 14.7784 41.5305 15.125V18H40.8601V17.4091H40.826C40.7805 17.5038 40.7048 17.6051 40.5987 17.7131C40.4927 17.821 40.3516 17.9129 40.1754 17.9886C39.9993 18.0644 39.7843 18.1023 39.5305 18.1023ZM39.6328 17.5C39.898 17.5 40.1214 17.4479 40.3033 17.3438C40.487 17.2396 40.6252 17.1051 40.718 16.9403C40.8127 16.7756 40.8601 16.6023 40.8601 16.4205V15.8068C40.8317 15.8409 40.7692 15.8722 40.6726 15.9006C40.5779 15.9271 40.468 15.9508 40.343 15.9716C40.2199 15.9905 40.0997 16.0076 39.9822 16.0227C39.8667 16.036 39.773 16.0473 39.701 16.0568C39.5268 16.0795 39.3639 16.1165 39.2124 16.1676C39.0627 16.2169 38.9415 16.2917 38.8487 16.392C38.7578 16.4905 38.7124 16.625 38.7124 16.7955C38.7124 17.0284 38.7985 17.2045 38.9709 17.3239C39.1451 17.4413 39.3658 17.5 39.6328 17.5ZM45.8452 14.6136L45.2429 14.7841C45.205 14.6837 45.1491 14.5862 45.0753 14.4915C45.0033 14.3949 44.9048 14.3153 44.7798 14.2528C44.6548 14.1903 44.4948 14.1591 44.2997 14.1591C44.0327 14.1591 43.8101 14.2206 43.6321 14.3438C43.456 14.465 43.3679 14.6193 43.3679 14.8068C43.3679 14.9735 43.4285 15.1051 43.5497 15.2017C43.6709 15.2983 43.8603 15.3788 44.1179 15.4432L44.7656 15.6023C45.1558 15.697 45.4465 15.8419 45.6378 16.0369C45.8291 16.2301 45.9247 16.4792 45.9247 16.7841C45.9247 17.0341 45.8527 17.2576 45.7088 17.4545C45.5668 17.6515 45.3679 17.8068 45.1122 17.9205C44.8565 18.0341 44.5592 18.0909 44.2202 18.0909C43.7751 18.0909 43.4067 17.9943 43.1151 17.8011C42.8234 17.608 42.6387 17.3258 42.5611 16.9545L43.1974 16.7955C43.258 17.0303 43.3726 17.2064 43.5412 17.3239C43.7116 17.4413 43.9342 17.5 44.2088 17.5C44.5213 17.5 44.7694 17.4337 44.9531 17.3011C45.1387 17.1667 45.2315 17.0057 45.2315 16.8182C45.2315 16.6667 45.1785 16.5398 45.0724 16.4375C44.9664 16.3333 44.8035 16.2557 44.5838 16.2045L43.8565 16.0341C43.4569 15.9394 43.1634 15.7926 42.9759 15.5938C42.7902 15.393 42.6974 15.142 42.6974 14.8409C42.6974 14.5947 42.7666 14.3769 42.9048 14.1875C43.045 13.9981 43.2353 13.8494 43.4759 13.7415C43.7183 13.6335 43.9929 13.5795 44.2997 13.5795C44.7315 13.5795 45.0705 13.6742 45.3168 13.8636C45.5649 14.053 45.741 14.303 45.8452 14.6136ZM48.7635 18.0909C48.343 18.0909 47.9804 17.9981 47.6754 17.8125C47.3724 17.625 47.1385 17.3636 46.9737 17.0284C46.8108 16.6913 46.7294 16.2992 46.7294 15.8523C46.7294 15.4053 46.8108 15.0114 46.9737 14.6705C47.1385 14.3277 47.3677 14.0606 47.6612 13.8693C47.9567 13.6761 48.3014 13.5795 48.6953 13.5795C48.9226 13.5795 49.147 13.6174 49.3686 13.6932C49.5902 13.7689 49.7919 13.892 49.9737 14.0625C50.1555 14.2311 50.3004 14.4545 50.4084 14.733C50.5163 15.0114 50.5703 15.3542 50.5703 15.7614V16.0455H47.2067V15.4659H49.8885C49.8885 15.2197 49.8393 15 49.7408 14.8068C49.6442 14.6136 49.5059 14.4612 49.326 14.3494C49.148 14.2377 48.9377 14.1818 48.6953 14.1818C48.4283 14.1818 48.1972 14.2481 48.0021 14.3807C47.8089 14.5114 47.6603 14.6818 47.5561 14.892C47.4519 15.1023 47.3999 15.3277 47.3999 15.5682V15.9545C47.3999 16.2841 47.4567 16.5634 47.5703 16.7926C47.6858 17.0199 47.8459 17.1932 48.0504 17.3125C48.255 17.4299 48.4927 17.4886 48.7635 17.4886C48.9396 17.4886 49.0987 17.464 49.2408 17.4148C49.3847 17.3636 49.5088 17.2879 49.6129 17.1875C49.7171 17.0852 49.7976 16.9583 49.8544 16.8068L50.5021 16.9886C50.4339 17.2083 50.3194 17.4015 50.1584 17.5682C49.9974 17.733 49.7985 17.8617 49.5618 17.9545C49.325 18.0455 49.0589 18.0909 48.7635 18.0909ZM55.7834 13.6364V14.2045H53.4311V13.6364H55.7834ZM54.1357 18V13.0341C54.1357 12.7841 54.1944 12.5758 54.3118 12.4091C54.4292 12.2424 54.5817 12.1174 54.7692 12.0341C54.9567 11.9508 55.1546 11.9091 55.3629 11.9091C55.5277 11.9091 55.6622 11.9223 55.7663 11.9489C55.8705 11.9754 55.9482 12 55.9993 12.0227L55.8061 12.6023C55.772 12.5909 55.7247 12.5767 55.6641 12.5597C55.6054 12.5426 55.5277 12.5341 55.4311 12.5341C55.2095 12.5341 55.0495 12.59 54.951 12.7017C54.8544 12.8134 54.8061 12.9773 54.8061 13.1932V18H54.1357ZM56.723 18V13.6364H57.3935V18H56.723ZM57.0639 12.9091C56.9332 12.9091 56.8205 12.8646 56.7259 12.7756C56.633 12.6866 56.5866 12.5795 56.5866 12.4545C56.5866 12.3295 56.633 12.2225 56.7259 12.1335C56.8205 12.0445 56.9332 12 57.0639 12C57.1946 12 57.3063 12.0445 57.3991 12.1335C57.4938 12.2225 57.5412 12.3295 57.5412 12.4545C57.5412 12.5795 57.4938 12.6866 57.3991 12.7756C57.3063 12.8646 57.1946 12.9091 57.0639 12.9091ZM59.2919 12.1818V18H58.6214V12.1818H59.2919ZM61.1903 12.1818V18H60.5199V12.1818H61.1903ZM64.6683 18V13.6364H65.3388V18H64.6683ZM65.0092 12.9091C64.8786 12.9091 64.7659 12.8646 64.6712 12.7756C64.5784 12.6866 64.532 12.5795 64.532 12.4545C64.532 12.3295 64.5784 12.2225 64.6712 12.1335C64.7659 12.0445 64.8786 12 65.0092 12C65.1399 12 65.2517 12.0445 65.3445 12.1335C65.4392 12.2225 65.4865 12.3295 65.4865 12.4545C65.4865 12.5795 65.4392 12.6866 65.3445 12.7756C65.2517 12.8646 65.1399 12.9091 65.0092 12.9091ZM67.2372 15.375V18H66.5668V13.6364H67.2145V14.3182H67.2713C67.3736 14.0966 67.5289 13.9186 67.7372 13.7841C67.9455 13.6477 68.2145 13.5795 68.544 13.5795C68.8395 13.5795 69.098 13.6402 69.3196 13.7614C69.5412 13.8807 69.7135 14.0625 69.8366 14.3068C69.9598 14.5492 70.0213 14.8561 70.0213 15.2273V18H69.3509V15.2727C69.3509 14.9299 69.2618 14.6629 69.0838 14.4716C68.9058 14.2784 68.6615 14.1818 68.3509 14.1818C68.1368 14.1818 67.9455 14.2282 67.777 14.321C67.6103 14.4138 67.4787 14.5492 67.3821 14.7273C67.2855 14.9053 67.2372 15.1212 67.2372 15.375ZM74.7805 18.1023C74.504 18.1023 74.2531 18.0502 74.0277 17.946C73.8023 17.84 73.6233 17.6875 73.4908 17.4886C73.3582 17.2879 73.2919 17.0455 73.2919 16.7614C73.2919 16.5114 73.3411 16.3087 73.4396 16.1534C73.5381 15.9962 73.6697 15.8731 73.8345 15.7841C73.9993 15.6951 74.1811 15.6288 74.38 15.5852C74.5807 15.5398 74.7824 15.5038 74.9851 15.4773C75.2502 15.4432 75.4652 15.4176 75.63 15.4006C75.7966 15.3816 75.9179 15.3504 75.9936 15.3068C76.0713 15.2633 76.1101 15.1875 76.1101 15.0795V15.0568C76.1101 14.7765 76.0334 14.5587 75.88 14.4034C75.7285 14.2481 75.4983 14.1705 75.1896 14.1705C74.8696 14.1705 74.6186 14.2405 74.4368 14.3807C74.255 14.5208 74.1271 14.6705 74.0533 14.8295L73.4169 14.6023C73.5305 14.3371 73.6821 14.1307 73.8714 13.983C74.0627 13.8333 74.2711 13.7292 74.4964 13.6705C74.7237 13.6098 74.9472 13.5795 75.1669 13.5795C75.3071 13.5795 75.468 13.5966 75.6499 13.6307C75.8336 13.6629 76.0107 13.7301 76.1811 13.8324C76.3535 13.9347 76.4964 14.089 76.6101 14.2955C76.7237 14.5019 76.7805 14.7784 76.7805 15.125V18H76.1101V17.4091H76.076C76.0305 17.5038 75.9548 17.6051 75.8487 17.7131C75.7427 17.821 75.6016 17.9129 75.4254 17.9886C75.2493 18.0644 75.0343 18.1023 74.7805 18.1023ZM74.8828 17.5C75.148 17.5 75.3714 17.4479 75.5533 17.3438C75.737 17.2396 75.8752 17.1051 75.968 16.9403C76.0627 16.7756 76.1101 16.6023 76.1101 16.4205V15.8068C76.0817 15.8409 76.0192 15.8722 75.9226 15.9006C75.8279 15.9271 75.718 15.9508 75.593 15.9716C75.4699 15.9905 75.3497 16.0076 75.2322 16.0227C75.1167 16.036 75.023 16.0473 74.951 16.0568C74.7768 16.0795 74.6139 16.1165 74.4624 16.1676C74.3127 16.2169 74.1915 16.2917 74.0987 16.392C74.0078 16.4905 73.9624 16.625 73.9624 16.7955C73.9624 17.0284 74.0485 17.2045 74.2209 17.3239C74.3951 17.4413 74.6158 17.5 74.8828 17.5ZM83.8224 13.6364L82.2088 18H81.527L79.9134 13.6364H80.6406L81.8452 17.1136H81.8906L83.0952 13.6364H83.8224ZM85.8587 18.1023C85.5821 18.1023 85.3312 18.0502 85.1058 17.946C84.8804 17.84 84.7015 17.6875 84.5689 17.4886C84.4363 17.2879 84.37 17.0455 84.37 16.7614C84.37 16.5114 84.4193 16.3087 84.5178 16.1534C84.6162 15.9962 84.7479 15.8731 84.9126 15.7841C85.0774 15.6951 85.2592 15.6288 85.4581 15.5852C85.6589 15.5398 85.8606 15.5038 86.0632 15.4773C86.3284 15.4432 86.5433 15.4176 86.7081 15.4006C86.8748 15.3816 86.996 15.3504 87.0717 15.3068C87.1494 15.2633 87.1882 15.1875 87.1882 15.0795V15.0568C87.1882 14.7765 87.1115 14.5587 86.9581 14.4034C86.8066 14.2481 86.5765 14.1705 86.2678 14.1705C85.9477 14.1705 85.6967 14.2405 85.5149 14.3807C85.3331 14.5208 85.2053 14.6705 85.1314 14.8295L84.495 14.6023C84.6087 14.3371 84.7602 14.1307 84.9496 13.983C85.1409 13.8333 85.3492 13.7292 85.5746 13.6705C85.8018 13.6098 86.0253 13.5795 86.245 13.5795C86.3852 13.5795 86.5462 13.5966 86.728 13.6307C86.9117 13.6629 87.0888 13.7301 87.2592 13.8324C87.4316 13.9347 87.5746 14.089 87.6882 14.2955C87.8018 14.5019 87.8587 14.7784 87.8587 15.125V18H87.1882V17.4091H87.1541C87.1087 17.5038 87.0329 17.6051 86.9268 17.7131C86.8208 17.821 86.6797 17.9129 86.5036 17.9886C86.3274 18.0644 86.1125 18.1023 85.8587 18.1023ZM85.9609 17.5C86.2261 17.5 86.4496 17.4479 86.6314 17.3438C86.8151 17.2396 86.9534 17.1051 87.0462 16.9403C87.1409 16.7756 87.1882 16.6023 87.1882 16.4205V15.8068C87.1598 15.8409 87.0973 15.8722 87.0007 15.9006C86.906 15.9271 86.7962 15.9508 86.6712 15.9716C86.5481 15.9905 86.4278 16.0076 86.3104 16.0227C86.1948 16.036 86.1011 16.0473 86.0291 16.0568C85.8549 16.0795 85.692 16.1165 85.5405 16.1676C85.3909 16.2169 85.2696 16.2917 85.1768 16.392C85.0859 16.4905 85.0405 16.625 85.0405 16.7955C85.0405 17.0284 85.1267 17.2045 85.299 17.3239C85.4732 17.4413 85.6939 17.5 85.9609 17.5ZM89.7528 12.1818V18H89.0824V12.1818H89.7528ZM90.9808 18V13.6364H91.6513V18H90.9808ZM91.3217 12.9091C91.1911 12.9091 91.0784 12.8646 90.9837 12.7756C90.8909 12.6866 90.8445 12.5795 90.8445 12.4545C90.8445 12.3295 90.8909 12.2225 90.9837 12.1335C91.0784 12.0445 91.1911 12 91.3217 12C91.4524 12 91.5642 12.0445 91.657 12.1335C91.7517 12.2225 91.799 12.3295 91.799 12.4545C91.799 12.5795 91.7517 12.6866 91.657 12.7756C91.5642 12.8646 91.4524 12.9091 91.3217 12.9091ZM94.527 18.0909C94.1634 18.0909 93.8423 17.9991 93.5639 17.8153C93.2855 17.6297 93.0677 17.3684 92.9105 17.0312C92.7533 16.6922 92.6747 16.2917 92.6747 15.8295C92.6747 15.3712 92.7533 14.9735 92.9105 14.6364C93.0677 14.2992 93.2865 14.0388 93.5668 13.8551C93.8471 13.6714 94.1709 13.5795 94.5384 13.5795C94.8224 13.5795 95.0469 13.6269 95.2116 13.7216C95.3783 13.8144 95.5052 13.9205 95.5923 14.0398C95.6813 14.1572 95.7505 14.2538 95.7997 14.3295H95.8565V12.1818H96.527V18H95.8793V17.3295H95.7997C95.7505 17.4091 95.6804 17.5095 95.5895 17.6307C95.4986 17.75 95.3688 17.857 95.2003 17.9517C95.0317 18.0445 94.8073 18.0909 94.527 18.0909ZM94.6179 17.4886C94.8868 17.4886 95.1141 17.4186 95.2997 17.2784C95.4853 17.1364 95.6264 16.9403 95.723 16.6903C95.8196 16.4384 95.8679 16.1477 95.8679 15.8182C95.8679 15.4924 95.8205 15.2074 95.7259 14.9631C95.6312 14.7169 95.491 14.5256 95.3054 14.3892C95.1198 14.2509 94.8906 14.1818 94.6179 14.1818C94.3338 14.1818 94.0971 14.2547 93.9077 14.4006C93.7202 14.5445 93.5791 14.7405 93.4844 14.9886C93.3916 15.2348 93.3452 15.5114 93.3452 15.8182C93.3452 16.1288 93.3925 16.411 93.4872 16.6648C93.5838 16.9167 93.7259 17.1174 93.9134 17.267C94.1027 17.4148 94.3376 17.4886 94.6179 17.4886ZM101.928 18.0909C101.507 18.0909 101.144 17.9981 100.839 17.8125C100.536 17.625 100.303 17.3636 100.138 17.0284C99.9749 16.6913 99.8935 16.2992 99.8935 15.8523C99.8935 15.4053 99.9749 15.0114 100.138 14.6705C100.303 14.3277 100.532 14.0606 100.825 13.8693C101.121 13.6761 101.465 13.5795 101.859 13.5795C102.087 13.5795 102.311 13.6174 102.533 13.6932C102.754 13.7689 102.956 13.892 103.138 14.0625C103.32 14.2311 103.464 14.4545 103.572 14.733C103.68 15.0114 103.734 15.3542 103.734 15.7614V16.0455H100.371V15.4659H103.053C103.053 15.2197 103.003 15 102.905 14.8068C102.808 14.6136 102.67 14.4612 102.49 14.3494C102.312 14.2377 102.102 14.1818 101.859 14.1818C101.592 14.1818 101.361 14.2481 101.166 14.3807C100.973 14.5114 100.824 14.6818 100.72 14.892C100.616 15.1023 100.564 15.3277 100.564 15.5682V15.9545C100.564 16.2841 100.621 16.5634 100.734 16.7926C100.85 17.0199 101.01 17.1932 101.214 17.3125C101.419 17.4299 101.657 17.4886 101.928 17.4886C102.104 17.4886 102.263 17.464 102.405 17.4148C102.549 17.3636 102.673 17.2879 102.777 17.1875C102.881 17.0852 102.962 16.9583 103.018 16.8068L103.666 16.9886C103.598 17.2083 103.483 17.4015 103.322 17.5682C103.161 17.733 102.963 17.8617 102.726 17.9545C102.489 18.0455 102.223 18.0909 101.928 18.0909ZM104.754 18V13.6364H105.402V14.3182H105.459C105.55 14.0852 105.696 13.9044 105.899 13.7756C106.102 13.6449 106.345 13.5795 106.629 13.5795C106.917 13.5795 107.157 13.6449 107.348 13.7756C107.541 13.9044 107.692 14.0852 107.8 14.3182H107.845C107.957 14.0928 108.125 13.9138 108.348 13.7812C108.571 13.6468 108.839 13.5795 109.152 13.5795C109.542 13.5795 109.861 13.7017 110.109 13.946C110.357 14.1884 110.482 14.5663 110.482 15.0795V18H109.811V15.0795C109.811 14.7576 109.723 14.5275 109.547 14.3892C109.371 14.2509 109.163 14.1818 108.925 14.1818C108.618 14.1818 108.38 14.2746 108.212 14.4602C108.043 14.6439 107.959 14.8769 107.959 15.1591V18H107.277V15.0114C107.277 14.7633 107.196 14.5634 107.036 14.4119C106.875 14.2585 106.667 14.1818 106.413 14.1818C106.239 14.1818 106.076 14.2282 105.925 14.321C105.775 14.4138 105.654 14.5426 105.561 14.7074C105.47 14.8703 105.425 15.0587 105.425 15.2727V18H104.754ZM112.991 18.1023C112.715 18.1023 112.464 18.0502 112.239 17.946C112.013 17.84 111.834 17.6875 111.702 17.4886C111.569 17.2879 111.503 17.0455 111.503 16.7614C111.503 16.5114 111.552 16.3087 111.651 16.1534C111.749 15.9962 111.881 15.8731 112.045 15.7841C112.21 15.6951 112.392 15.6288 112.591 15.5852C112.792 15.5398 112.993 15.5038 113.196 15.4773C113.461 15.4432 113.676 15.4176 113.841 15.4006C114.008 15.3816 114.129 15.3504 114.205 15.3068C114.282 15.2633 114.321 15.1875 114.321 15.0795V15.0568C114.321 14.7765 114.244 14.5587 114.091 14.4034C113.939 14.2481 113.709 14.1705 113.401 14.1705C113.08 14.1705 112.83 14.2405 112.648 14.3807C112.466 14.5208 112.338 14.6705 112.264 14.8295L111.628 14.6023C111.741 14.3371 111.893 14.1307 112.082 13.983C112.274 13.8333 112.482 13.7292 112.707 13.6705C112.935 13.6098 113.158 13.5795 113.378 13.5795C113.518 13.5795 113.679 13.5966 113.861 13.6307C114.045 13.6629 114.222 13.7301 114.392 13.8324C114.564 13.9347 114.707 14.089 114.821 14.2955C114.935 14.5019 114.991 14.7784 114.991 15.125V18H114.321V17.4091H114.287C114.241 17.5038 114.166 17.6051 114.06 17.7131C113.954 17.821 113.813 17.9129 113.636 17.9886C113.46 18.0644 113.245 18.1023 112.991 18.1023ZM113.094 17.5C113.359 17.5 113.582 17.4479 113.764 17.3438C113.948 17.2396 114.086 17.1051 114.179 16.9403C114.274 16.7756 114.321 16.6023 114.321 16.4205V15.8068C114.293 15.8409 114.23 15.8722 114.134 15.9006C114.039 15.9271 113.929 15.9508 113.804 15.9716C113.681 15.9905 113.561 16.0076 113.443 16.0227C113.328 16.036 113.234 16.0473 113.162 16.0568C112.988 16.0795 112.825 16.1165 112.673 16.1676C112.524 16.2169 112.402 16.2917 112.31 16.392C112.219 16.4905 112.173 16.625 112.173 16.7955C112.173 17.0284 112.259 17.2045 112.432 17.3239C112.606 17.4413 112.827 17.5 113.094 17.5ZM116.215 18V13.6364H116.886V18H116.215ZM116.556 12.9091C116.425 12.9091 116.313 12.8646 116.218 12.7756C116.125 12.6866 116.079 12.5795 116.079 12.4545C116.079 12.3295 116.125 12.2225 116.218 12.1335C116.313 12.0445 116.425 12 116.556 12C116.687 12 116.799 12.0445 116.891 12.1335C116.986 12.2225 117.033 12.3295 117.033 12.4545C117.033 12.5795 116.986 12.6866 116.891 12.7756C116.799 12.8646 116.687 12.9091 116.556 12.9091ZM118.784 12.1818V18H118.114V12.1818H118.784ZM123.546 18.1023C123.27 18.1023 123.019 18.0502 122.793 17.946C122.568 17.84 122.389 17.6875 122.256 17.4886C122.124 17.2879 122.058 17.0455 122.058 16.7614C122.058 16.5114 122.107 16.3087 122.205 16.1534C122.304 15.9962 122.435 15.8731 122.6 15.7841C122.765 15.6951 122.947 15.6288 123.146 15.5852C123.346 15.5398 123.548 15.5038 123.751 15.4773C124.016 15.4432 124.231 15.4176 124.396 15.4006C124.562 15.3816 124.683 15.3504 124.759 15.3068C124.837 15.2633 124.876 15.1875 124.876 15.0795V15.0568C124.876 14.7765 124.799 14.5587 124.646 14.4034C124.494 14.2481 124.264 14.1705 123.955 14.1705C123.635 14.1705 123.384 14.2405 123.202 14.3807C123.021 14.5208 122.893 14.6705 122.819 14.8295L122.183 14.6023C122.296 14.3371 122.448 14.1307 122.637 13.983C122.828 13.8333 123.037 13.7292 123.262 13.6705C123.489 13.6098 123.713 13.5795 123.933 13.5795C124.073 13.5795 124.234 13.5966 124.415 13.6307C124.599 13.6629 124.776 13.7301 124.947 13.8324C125.119 13.9347 125.262 14.089 125.376 14.2955C125.489 14.5019 125.546 14.7784 125.546 15.125V18H124.876V17.4091H124.842C124.796 17.5038 124.72 17.6051 124.614 17.7131C124.508 17.821 124.367 17.9129 124.191 17.9886C124.015 18.0644 123.8 18.1023 123.546 18.1023ZM123.648 17.5C123.914 17.5 124.137 17.4479 124.319 17.3438C124.503 17.2396 124.641 17.1051 124.734 16.9403C124.828 16.7756 124.876 16.6023 124.876 16.4205V15.8068C124.847 15.8409 124.785 15.8722 124.688 15.9006C124.594 15.9271 124.484 15.9508 124.359 15.9716C124.236 15.9905 124.115 16.0076 123.998 16.0227C123.882 16.036 123.789 16.0473 123.717 16.0568C123.542 16.0795 123.379 16.1165 123.228 16.1676C123.078 16.2169 122.957 16.2917 122.864 16.392C122.773 16.4905 122.728 16.625 122.728 16.7955C122.728 17.0284 122.814 17.2045 122.987 17.3239C123.161 17.4413 123.381 17.5 123.648 17.5ZM128.418 18.0909C128.054 18.0909 127.733 17.9991 127.455 17.8153C127.176 17.6297 126.958 17.3684 126.801 17.0312C126.644 16.6922 126.565 16.2917 126.565 15.8295C126.565 15.3712 126.644 14.9735 126.801 14.6364C126.958 14.2992 127.177 14.0388 127.457 13.8551C127.738 13.6714 128.062 13.5795 128.429 13.5795C128.713 13.5795 128.938 13.6269 129.102 13.7216C129.269 13.8144 129.396 13.9205 129.483 14.0398C129.572 14.1572 129.641 14.2538 129.69 14.3295H129.747V12.1818H130.418V18H129.77V17.3295H129.69C129.641 17.4091 129.571 17.5095 129.48 17.6307C129.389 17.75 129.259 17.857 129.091 17.9517C128.922 18.0445 128.698 18.0909 128.418 18.0909ZM128.509 17.4886C128.777 17.4886 129.005 17.4186 129.19 17.2784C129.376 17.1364 129.517 16.9403 129.614 16.6903C129.71 16.4384 129.759 16.1477 129.759 15.8182C129.759 15.4924 129.711 15.2074 129.616 14.9631C129.522 14.7169 129.382 14.5256 129.196 14.3892C129.01 14.2509 128.781 14.1818 128.509 14.1818C128.224 14.1818 127.988 14.2547 127.798 14.4006C127.611 14.5445 127.47 14.7405 127.375 14.9886C127.282 15.2348 127.236 15.5114 127.236 15.8182C127.236 16.1288 127.283 16.411 127.378 16.6648C127.474 16.9167 127.616 17.1174 127.804 17.267C127.993 17.4148 128.228 17.4886 128.509 17.4886ZM133.386 18.0909C133.023 18.0909 132.702 17.9991 132.423 17.8153C132.145 17.6297 131.927 17.3684 131.77 17.0312C131.613 16.6922 131.534 16.2917 131.534 15.8295C131.534 15.3712 131.613 14.9735 131.77 14.6364C131.927 14.2992 132.146 14.0388 132.426 13.8551C132.706 13.6714 133.03 13.5795 133.398 13.5795C133.682 13.5795 133.906 13.6269 134.071 13.7216C134.238 13.8144 134.365 13.9205 134.452 14.0398C134.541 14.1572 134.61 14.2538 134.659 14.3295H134.716V12.1818H135.386V18H134.739V17.3295H134.659C134.61 17.4091 134.54 17.5095 134.449 17.6307C134.358 17.75 134.228 17.857 134.06 17.9517C133.891 18.0445 133.667 18.0909 133.386 18.0909ZM133.477 17.4886C133.746 17.4886 133.973 17.4186 134.159 17.2784C134.345 17.1364 134.486 16.9403 134.582 16.6903C134.679 16.4384 134.727 16.1477 134.727 15.8182C134.727 15.4924 134.68 15.2074 134.585 14.9631C134.491 14.7169 134.35 14.5256 134.165 14.3892C133.979 14.2509 133.75 14.1818 133.477 14.1818C133.193 14.1818 132.956 14.2547 132.767 14.4006C132.58 14.5445 132.438 14.7405 132.344 14.9886C132.251 15.2348 132.205 15.5114 132.205 15.8182C132.205 16.1288 132.252 16.411 132.347 16.6648C132.443 16.9167 132.585 17.1174 132.773 17.267C132.962 17.4148 133.197 17.4886 133.477 17.4886ZM136.707 18V13.6364H137.355V14.2955H137.401C137.48 14.0795 137.624 13.9044 137.832 13.7699C138.041 13.6354 138.276 13.5682 138.537 13.5682C138.586 13.5682 138.648 13.5691 138.722 13.571C138.795 13.5729 138.851 13.5758 138.889 13.5795V14.2614C138.866 14.2557 138.814 14.2472 138.733 14.2358C138.653 14.2225 138.569 14.2159 138.48 14.2159C138.268 14.2159 138.079 14.2604 137.912 14.3494C137.747 14.4366 137.616 14.5578 137.52 14.7131C137.425 14.8665 137.378 15.0417 137.378 15.2386V18H136.707ZM141.381 18.0909C140.96 18.0909 140.598 17.9981 140.293 17.8125C139.99 17.625 139.756 17.3636 139.591 17.0284C139.428 16.6913 139.347 16.2992 139.347 15.8523C139.347 15.4053 139.428 15.0114 139.591 14.6705C139.756 14.3277 139.985 14.0606 140.278 13.8693C140.574 13.6761 140.919 13.5795 141.312 13.5795C141.54 13.5795 141.764 13.6174 141.986 13.6932C142.207 13.7689 142.409 13.892 142.591 14.0625C142.773 14.2311 142.918 14.4545 143.026 14.733C143.134 15.0114 143.188 15.3542 143.188 15.7614V16.0455H139.824V15.4659H142.506C142.506 15.2197 142.456 15 142.358 14.8068C142.261 14.6136 142.123 14.4612 141.943 14.3494C141.765 14.2377 141.555 14.1818 141.312 14.1818C141.045 14.1818 140.814 14.2481 140.619 14.3807C140.426 14.5114 140.277 14.6818 140.173 14.892C140.069 15.1023 140.017 15.3277 140.017 15.5682V15.9545C140.017 16.2841 140.074 16.5634 140.188 16.7926C140.303 17.0199 140.463 17.1932 140.668 17.3125C140.872 17.4299 141.11 17.4886 141.381 17.4886C141.557 17.4886 141.716 17.464 141.858 17.4148C142.002 17.3636 142.126 17.2879 142.23 17.1875C142.334 17.0852 142.415 16.9583 142.472 16.8068L143.119 16.9886C143.051 17.2083 142.937 17.4015 142.776 17.5682C142.615 17.733 142.416 17.8617 142.179 17.9545C141.942 18.0455 141.676 18.0909 141.381 18.0909ZM147.298 14.6136L146.696 14.7841C146.658 14.6837 146.602 14.5862 146.528 14.4915C146.456 14.3949 146.358 14.3153 146.233 14.2528C146.108 14.1903 145.948 14.1591 145.753 14.1591C145.486 14.1591 145.263 14.2206 145.085 14.3438C144.909 14.465 144.821 14.6193 144.821 14.8068C144.821 14.9735 144.882 15.1051 145.003 15.2017C145.124 15.2983 145.313 15.3788 145.571 15.4432L146.219 15.6023C146.609 15.697 146.9 15.8419 147.091 16.0369C147.282 16.2301 147.378 16.4792 147.378 16.7841C147.378 17.0341 147.306 17.2576 147.162 17.4545C147.02 17.6515 146.821 17.8068 146.565 17.9205C146.31 18.0341 146.012 18.0909 145.673 18.0909C145.228 18.0909 144.86 17.9943 144.568 17.8011C144.277 17.608 144.092 17.3258 144.014 16.9545L144.651 16.7955C144.711 17.0303 144.826 17.2064 144.994 17.3239C145.165 17.4413 145.387 17.5 145.662 17.5C145.974 17.5 146.223 17.4337 146.406 17.3011C146.592 17.1667 146.685 17.0057 146.685 16.8182C146.685 16.6667 146.632 16.5398 146.526 16.4375C146.42 16.3333 146.257 16.2557 146.037 16.2045L145.31 16.0341C144.91 15.9394 144.616 15.7926 144.429 15.5938C144.243 15.393 144.151 15.142 144.151 14.8409C144.151 14.5947 144.22 14.3769 144.358 14.1875C144.498 13.9981 144.688 13.8494 144.929 13.7415C145.171 13.6335 145.446 13.5795 145.753 13.5795C146.185 13.5795 146.524 13.6742 146.77 13.8636C147.018 14.053 147.194 14.303 147.298 14.6136ZM151.478 14.6136L150.876 14.7841C150.838 14.6837 150.782 14.5862 150.708 14.4915C150.636 14.3949 150.538 14.3153 150.413 14.2528C150.288 14.1903 150.128 14.1591 149.933 14.1591C149.665 14.1591 149.443 14.2206 149.265 14.3438C149.089 14.465 149.001 14.6193 149.001 14.8068C149.001 14.9735 149.061 15.1051 149.183 15.2017C149.304 15.2983 149.493 15.3788 149.751 15.4432L150.398 15.6023C150.789 15.697 151.079 15.8419 151.271 16.0369C151.462 16.2301 151.558 16.4792 151.558 16.7841C151.558 17.0341 151.486 17.2576 151.342 17.4545C151.2 17.6515 151.001 17.8068 150.745 17.9205C150.489 18.0341 150.192 18.0909 149.853 18.0909C149.408 18.0909 149.04 17.9943 148.748 17.8011C148.456 17.608 148.272 17.3258 148.194 16.9545L148.83 16.7955C148.891 17.0303 149.005 17.2064 149.174 17.3239C149.344 17.4413 149.567 17.5 149.842 17.5C150.154 17.5 150.402 17.4337 150.586 17.3011C150.772 17.1667 150.864 17.0057 150.864 16.8182C150.864 16.6667 150.811 16.5398 150.705 16.4375C150.599 16.3333 150.436 16.2557 150.217 16.2045L149.489 16.0341C149.09 15.9394 148.796 15.7926 148.609 15.5938C148.423 15.393 148.33 15.142 148.33 14.8409C148.33 14.5947 148.399 14.3769 148.538 14.1875C148.678 13.9981 148.868 13.8494 149.109 13.7415C149.351 13.6335 149.626 13.5795 149.933 13.5795C150.364 13.5795 150.703 13.6742 150.95 13.8636C151.198 14.053 151.374 14.303 151.478 14.6136ZM153.055 18.0455C152.915 18.0455 152.795 17.9953 152.695 17.8949C152.594 17.7945 152.544 17.6742 152.544 17.5341C152.544 17.3939 152.594 17.2737 152.695 17.1733C152.795 17.0729 152.915 17.0227 153.055 17.0227C153.196 17.0227 153.316 17.0729 153.416 17.1733C153.517 17.2737 153.567 17.3939 153.567 17.5341C153.567 17.6269 153.543 17.7121 153.496 17.7898C153.45 17.8674 153.389 17.9299 153.311 17.9773C153.235 18.0227 153.15 18.0455 153.055 18.0455Z" fill="black"/>
<defs>
<filter id="filter0_d_16_24" x="3.93784" y="0" width="20.1243" height="14.75" filterUnits="userSpaceOnUse" color-interpolation-filters="sRGB">
<feFlood flood-opacity="0" result="BackgroundImageFix"/>
<feColorMatrix in="SourceAlpha" type="matrix" values="0 0 0 0 0 0 0 0 0 0 0 0 0 0 0 0 0 0 127 0" result="hardAlpha"/>
<feOffset dy="4"/>
<feGaussianBlur stdDeviation="2"/>
<feComposite in2="hardAlpha" operator="out"/>
<feColorMatrix type="matrix" values="0 0 0 0 0 0 0 0 0 0 0 0 0 0 0 0 0 0 0.25 0"/>
<feBlend mode="normal" in2="BackgroundImageFix" result="effect1_dropShadow_16_24"/>
<feBlend mode="normal" in="SourceGraphic" in2="effect1_dropShadow_16_24" result="shape"/>
</filter>
</defs>
</svg>
