<svg width="156" height="43" viewBox="0 0 156 43" fill="none" xmlns="http://www.w3.org/2000/svg">
<g filter="url(#filter0_d_24_121)">
<path d="M14 0L20.0622 6.75H7.93782L14 0Z" fill="#F1F1F1"/>
</g>
<rect y="6" width="120" height="20" rx="2" fill="#F1F1F1"/>
<rect x="10" y="10" width="11" height="10" rx="1" fill="#004FAA"/>
<rect x="14.5179" y="11.4286" width="1.96429" height="5" fill="white"/>
<ellipse cx="15.5" cy="17.8571" rx="0.982143" ry="0.714286" fill="white"/>
<path opacity="0.8" d="M26.7045 18V12.1818H28.6705C29.1269 12.1818 29.5 12.2642 29.7898 12.429C30.0814 12.5919 30.2973 12.8125 30.4375 13.0909C30.5777 13.3693 30.6477 13.6799 30.6477 14.0227C30.6477 14.3655 30.5777 14.6771 30.4375 14.9574C30.2992 15.2377 30.0852 15.4612 29.7955 15.6278C29.5057 15.7926 29.1345 15.875 28.6818 15.875H27.2727V15.25H28.6591C28.9716 15.25 29.2225 15.196 29.4119 15.0881C29.6013 14.9801 29.7386 14.8343 29.8239 14.6506C29.911 14.465 29.9545 14.2557 29.9545 14.0227C29.9545 13.7898 29.911 13.5814 29.8239 13.3977C29.7386 13.214 29.6004 13.0701 29.4091 12.9659C29.2178 12.8598 28.964 12.8068 28.6477 12.8068H27.4091V18H26.7045ZM32.3622 12.1818V18H31.6918V12.1818H32.3622ZM35.4197 18.0909C34.9993 18.0909 34.6366 17.9981 34.3317 17.8125C34.0286 17.625 33.7947 17.3636 33.63 17.0284C33.4671 16.6913 33.3857 16.2992 33.3857 15.8523C33.3857 15.4053 33.4671 15.0114 33.63 14.6705C33.7947 14.3277 34.0239 14.0606 34.3175 13.8693C34.6129 13.6761 34.9576 13.5795 35.3516 13.5795C35.5788 13.5795 35.8033 13.6174 36.0249 13.6932C36.2464 13.7689 36.4482 13.892 36.63 14.0625C36.8118 14.2311 36.9567 14.4545 37.0646 14.733C37.1726 15.0114 37.2266 15.3542 37.2266 15.7614V16.0455H33.8629V15.4659H36.5447C36.5447 15.2197 36.4955 15 36.397 14.8068C36.3004 14.6136 36.1622 14.4612 35.9822 14.3494C35.8042 14.2377 35.594 14.1818 35.3516 14.1818C35.0845 14.1818 34.8535 14.2481 34.6584 14.3807C34.4652 14.5114 34.3165 14.6818 34.2124 14.892C34.1082 15.1023 34.0561 15.3277 34.0561 15.5682V15.9545C34.0561 16.2841 34.1129 16.5634 34.2266 16.7926C34.3421 17.0199 34.5021 17.1932 34.7067 17.3125C34.9112 17.4299 35.1489 17.4886 35.4197 17.4886C35.5959 17.4886 35.755 17.464 35.897 17.4148C36.041 17.3636 36.165 17.2879 36.2692 17.1875C36.3733 17.0852 36.4538 16.9583 36.5107 16.8068L37.1584 16.9886C37.0902 17.2083 36.9756 17.4015 36.8146 17.5682C36.6536 17.733 36.4548 17.8617 36.218 17.9545C35.9813 18.0455 35.7152 18.0909 35.4197 18.0909ZM39.5305 18.1023C39.254 18.1023 39.0031 18.0502 38.7777 17.946C38.5523 17.84 38.3733 17.6875 38.2408 17.4886C38.1082 17.2879 38.0419 17.0455 38.0419 16.7614C38.0419 16.5114 38.0911 16.3087 38.1896 16.1534C38.2881 15.9962 38.4197 15.8731 38.5845 15.7841C38.7493 15.6951 38.9311 15.6288 39.13 15.5852C39.3307 15.5398 39.5324 15.5038 39.7351 15.4773C40.0002 15.4432 40.2152 15.4176 40.38 15.4006C40.5466 15.3816 40.6679 15.3504 40.7436 15.3068C40.8213 15.2633 40.8601 15.1875 40.8601 15.0795V15.0568C40.8601 14.7765 40.7834 14.5587 40.63 14.4034C40.4785 14.2481 40.2483 14.1705 39.9396 14.1705C39.6196 14.1705 39.3686 14.2405 39.1868 14.3807C39.005 14.5208 38.8771 14.6705 38.8033 14.8295L38.1669 14.6023C38.2805 14.3371 38.4321 14.1307 38.6214 13.983C38.8127 13.8333 39.0211 13.7292 39.2464 13.6705C39.4737 13.6098 39.6972 13.5795 39.9169 13.5795C40.0571 13.5795 40.218 13.5966 40.3999 13.6307C40.5836 13.6629 40.7607 13.7301 40.9311 13.8324C41.1035 13.9347 41.2464 14.089 41.3601 14.2955C41.4737 14.5019 41.5305 14.7784 41.5305 15.125V18H40.8601V17.4091H40.826C40.7805 17.5038 40.7048 17.6051 40.5987 17.7131C40.4927 17.821 40.3516 17.9129 40.1754 17.9886C39.9993 18.0644 39.7843 18.1023 39.5305 18.1023ZM39.6328 17.5C39.898 17.5 40.1214 17.4479 40.3033 17.3438C40.487 17.2396 40.6252 17.1051 40.718 16.9403C40.8127 16.7756 40.8601 16.6023 40.8601 16.4205V15.8068C40.8317 15.8409 40.7692 15.8722 40.6726 15.9006C40.5779 15.9271 40.468 15.9508 40.343 15.9716C40.2199 15.9905 40.0997 16.0076 39.9822 16.0227C39.8667 16.036 39.773 16.0473 39.701 16.0568C39.5268 16.0795 39.3639 16.1165 39.2124 16.1676C39.0627 16.2169 38.9415 16.2917 38.8487 16.392C38.7578 16.4905 38.7124 16.625 38.7124 16.7955C38.7124 17.0284 38.7985 17.2045 38.9709 17.3239C39.1451 17.4413 39.3658 17.5 39.6328 17.5ZM45.8452 14.6136L45.2429 14.7841C45.205 14.6837 45.1491 14.5862 45.0753 14.4915C45.0033 14.3949 44.9048 14.3153 44.7798 14.2528C44.6548 14.1903 44.4948 14.1591 44.2997 14.1591C44.0327 14.1591 43.8101 14.2206 43.6321 14.3438C43.456 14.465 43.3679 14.6193 43.3679 14.8068C43.3679 14.9735 43.4285 15.1051 43.5497 15.2017C43.6709 15.2983 43.8603 15.3788 44.1179 15.4432L44.7656 15.6023C45.1558 15.697 45.4465 15.8419 45.6378 16.0369C45.8291 16.2301 45.9247 16.4792 45.9247 16.7841C45.9247 17.0341 45.8527 17.2576 45.7088 17.4545C45.5668 17.6515 45.3679 17.8068 45.1122 17.9205C44.8565 18.0341 44.5592 18.0909 44.2202 18.0909C43.7751 18.0909 43.4067 17.9943 43.1151 17.8011C42.8234 17.608 42.6387 17.3258 42.5611 16.9545L43.1974 16.7955C43.258 17.0303 43.3726 17.2064 43.5412 17.3239C43.7116 17.4413 43.9342 17.5 44.2088 17.5C44.5213 17.5 44.7694 17.4337 44.9531 17.3011C45.1387 17.1667 45.2315 17.0057 45.2315 16.8182C45.2315 16.6667 45.1785 16.5398 45.0724 16.4375C44.9664 16.3333 44.8035 16.2557 44.5838 16.2045L43.8565 16.0341C43.4569 15.9394 43.1634 15.7926 42.9759 15.5938C42.7902 15.393 42.6974 15.142 42.6974 14.8409C42.6974 14.5947 42.7666 14.3769 42.9048 14.1875C43.045 13.9981 43.2353 13.8494 43.4759 13.7415C43.7183 13.6335 43.9929 13.5795 44.2997 13.5795C44.7315 13.5795 45.0705 13.6742 45.3168 13.8636C45.5649 14.053 45.741 14.303 45.8452 14.6136ZM48.7635 18.0909C48.343 18.0909 47.9804 17.9981 47.6754 17.8125C47.3724 17.625 47.1385 17.3636 46.9737 17.0284C46.8108 16.6913 46.7294 16.2992 46.7294 15.8523C46.7294 15.4053 46.8108 15.0114 46.9737 14.6705C47.1385 14.3277 47.3677 14.0606 47.6612 13.8693C47.9567 13.6761 48.3014 13.5795 48.6953 13.5795C48.9226 13.5795 49.147 13.6174 49.3686 13.6932C49.5902 13.7689 49.7919 13.892 49.9737 14.0625C50.1555 14.2311 50.3004 14.4545 50.4084 14.733C50.5163 15.0114 50.5703 15.3542 50.5703 15.7614V16.0455H47.2067V15.4659H49.8885C49.8885 15.2197 49.8393 15 49.7408 14.8068C49.6442 14.6136 49.5059 14.4612 49.326 14.3494C49.148 14.2377 48.9377 14.1818 48.6953 14.1818C48.4283 14.1818 48.1972 14.2481 48.0021 14.3807C47.8089 14.5114 47.6603 14.6818 47.5561 14.892C47.4519 15.1023 47.3999 15.3277 47.3999 15.5682V15.9545C47.3999 16.2841 47.4567 16.5634 47.5703 16.7926C47.6858 17.0199 47.8459 17.1932 48.0504 17.3125C48.255 17.4299 48.4927 17.4886 48.7635 17.4886C48.9396 17.4886 49.0987 17.464 49.2408 17.4148C49.3847 17.3636 49.5088 17.2879 49.6129 17.1875C49.7171 17.0852 49.7976 16.9583 49.8544 16.8068L50.5021 16.9886C50.4339 17.2083 50.3194 17.4015 50.1584 17.5682C49.9974 17.733 49.7985 17.8617 49.5618 17.9545C49.325 18.0455 49.0589 18.0909 48.7635 18.0909ZM55.7834 13.6364V14.2045H53.4311V13.6364H55.7834ZM54.1357 18V13.0341C54.1357 12.7841 54.1944 12.5758 54.3118 12.4091C54.4292 12.2424 54.5817 12.1174 54.7692 12.0341C54.9567 11.9508 55.1546 11.9091 55.3629 11.9091C55.5277 11.9091 55.6622 11.9223 55.7663 11.9489C55.8705 11.9754 55.9482 12 55.9993 12.0227L55.8061 12.6023C55.772 12.5909 55.7247 12.5767 55.6641 12.5597C55.6054 12.5426 55.5277 12.5341 55.4311 12.5341C55.2095 12.5341 55.0495 12.59 54.951 12.7017C54.8544 12.8134 54.8061 12.9773 54.8061 13.1932V18H54.1357ZM56.723 18V13.6364H57.3935V18H56.723ZM57.0639 12.9091C56.9332 12.9091 56.8205 12.8646 56.7259 12.7756C56.633 12.6866 56.5866 12.5795 56.5866 12.4545C56.5866 12.3295 56.633 12.2225 56.7259 12.1335C56.8205 12.0445 56.9332 12 57.0639 12C57.1946 12 57.3063 12.0445 57.3991 12.1335C57.4938 12.2225 57.5412 12.3295 57.5412 12.4545C57.5412 12.5795 57.4938 12.6866 57.3991 12.7756C57.3063 12.8646 57.1946 12.9091 57.0639 12.9091ZM59.2919 12.1818V18H58.6214V12.1818H59.2919ZM61.1903 12.1818V18H60.5199V12.1818H61.1903ZM64.6683 18V13.6364H65.3388V18H64.6683ZM65.0092 12.9091C64.8786 12.9091 64.7659 12.8646 64.6712 12.7756C64.5784 12.6866 64.532 12.5795 64.532 12.4545C64.532 12.3295 64.5784 12.2225 64.6712 12.1335C64.7659 12.0445 64.8786 12 65.0092 12C65.1399 12 65.2517 12.0445 65.3445 12.1335C65.4392 12.2225 65.4865 12.3295 65.4865 12.4545C65.4865 12.5795 65.4392 12.6866 65.3445 12.7756C65.2517 12.8646 65.1399 12.9091 65.0092 12.9091ZM67.2372 15.375V18H66.5668V13.6364H67.2145V14.3182H67.2713C67.3736 14.0966 67.5289 13.9186 67.7372 13.7841C67.9455 13.6477 68.2145 13.5795 68.544 13.5795C68.8395 13.5795 69.098 13.6402 69.3196 13.7614C69.5412 13.8807 69.7135 14.0625 69.8366 14.3068C69.9598 14.5492 70.0213 14.8561 70.0213 15.2273V18H69.3509V15.2727C69.3509 14.9299 69.2618 14.6629 69.0838 14.4716C68.9058 14.2784 68.6615 14.1818 68.3509 14.1818C68.1368 14.1818 67.9455 14.2282 67.777 14.321C67.6103 14.4138 67.4787 14.5492 67.3821 14.7273C67.2855 14.9053 67.2372 15.1212 67.2372 15.375ZM75.3942 13.6364V14.2045H73.1328V13.6364H75.3942ZM73.7919 12.5909H74.4624V16.75C74.4624 16.9394 74.4898 17.0814 74.5447 17.1761C74.6016 17.2689 74.6735 17.3314 74.7607 17.3636C74.8497 17.3939 74.9434 17.4091 75.0419 17.4091C75.1158 17.4091 75.1764 17.4053 75.2237 17.3977C75.2711 17.3883 75.3089 17.3807 75.3374 17.375L75.4737 17.9773C75.4283 17.9943 75.3648 18.0114 75.2834 18.0284C75.2019 18.0473 75.0987 18.0568 74.9737 18.0568C74.7843 18.0568 74.5987 18.0161 74.4169 17.9347C74.237 17.8532 74.0874 17.7292 73.968 17.5625C73.8506 17.3958 73.7919 17.1856 73.7919 16.9318V12.5909ZM77.1669 15.375V18H76.4964V12.1818H77.1669V14.3182H77.2237C77.326 14.0928 77.4794 13.9138 77.6839 13.7812C77.8904 13.6468 78.165 13.5795 78.5078 13.5795C78.8052 13.5795 79.0656 13.6392 79.2891 13.7585C79.5125 13.8759 79.6858 14.0568 79.8089 14.3011C79.9339 14.5436 79.9964 14.8523 79.9964 15.2273V18H79.326V15.2727C79.326 14.9261 79.236 14.6581 79.0561 14.4688C78.8781 14.2775 78.6309 14.1818 78.3146 14.1818C78.0949 14.1818 77.898 14.2282 77.7237 14.321C77.5514 14.4138 77.415 14.5492 77.3146 14.7273C77.2161 14.9053 77.1669 15.1212 77.1669 15.375ZM81.223 18V13.6364H81.8935V18H81.223ZM81.5639 12.9091C81.4332 12.9091 81.3205 12.8646 81.2259 12.7756C81.133 12.6866 81.0866 12.5795 81.0866 12.4545C81.0866 12.3295 81.133 12.2225 81.2259 12.1335C81.3205 12.0445 81.4332 12 81.5639 12C81.6946 12 81.8063 12.0445 81.8991 12.1335C81.9938 12.2225 82.0412 12.3295 82.0412 12.4545C82.0412 12.5795 81.9938 12.6866 81.8991 12.7756C81.8063 12.8646 81.6946 12.9091 81.5639 12.9091ZM86.2124 14.6136L85.6101 14.7841C85.5722 14.6837 85.5163 14.5862 85.4425 14.4915C85.3705 14.3949 85.272 14.3153 85.147 14.2528C85.022 14.1903 84.862 14.1591 84.6669 14.1591C84.3999 14.1591 84.1773 14.2206 83.9993 14.3438C83.8232 14.465 83.7351 14.6193 83.7351 14.8068C83.7351 14.9735 83.7957 15.1051 83.9169 15.2017C84.0381 15.2983 84.2275 15.3788 84.4851 15.4432L85.1328 15.6023C85.523 15.697 85.8137 15.8419 86.005 16.0369C86.1963 16.2301 86.2919 16.4792 86.2919 16.7841C86.2919 17.0341 86.2199 17.2576 86.076 17.4545C85.9339 17.6515 85.7351 17.8068 85.4794 17.9205C85.2237 18.0341 84.9264 18.0909 84.5874 18.0909C84.1423 18.0909 83.7739 17.9943 83.4822 17.8011C83.1906 17.608 83.0059 17.3258 82.9283 16.9545L83.5646 16.7955C83.6252 17.0303 83.7398 17.2064 83.9084 17.3239C84.0788 17.4413 84.3014 17.5 84.576 17.5C84.8885 17.5 85.1366 17.4337 85.3203 17.3011C85.5059 17.1667 85.5987 17.0057 85.5987 16.8182C85.5987 16.6667 85.5457 16.5398 85.4396 16.4375C85.3336 16.3333 85.1707 16.2557 84.951 16.2045L84.2237 16.0341C83.8241 15.9394 83.5305 15.7926 83.343 15.5938C83.1574 15.393 83.0646 15.142 83.0646 14.8409C83.0646 14.5947 83.1338 14.3769 83.272 14.1875C83.4122 13.9981 83.6025 13.8494 83.843 13.7415C84.0855 13.6335 84.3601 13.5795 84.6669 13.5795C85.0987 13.5795 85.4377 13.6742 85.6839 13.8636C85.9321 14.053 86.1082 14.303 86.2124 14.6136ZM91.4943 13.6364V14.2045H89.142V13.6364H91.4943ZM89.8466 18V13.0341C89.8466 12.7841 89.9053 12.5758 90.0227 12.4091C90.1402 12.2424 90.2926 12.1174 90.4801 12.0341C90.6676 11.9508 90.8655 11.9091 91.0739 11.9091C91.2386 11.9091 91.3731 11.9223 91.4773 11.9489C91.5814 11.9754 91.6591 12 91.7102 12.0227L91.517 12.6023C91.483 12.5909 91.4356 12.5767 91.375 12.5597C91.3163 12.5426 91.2386 12.5341 91.142 12.5341C90.9205 12.5341 90.7604 12.59 90.6619 12.7017C90.5653 12.8134 90.517 12.9773 90.517 13.1932V18H89.8466ZM92.4339 18V13.6364H93.1044V18H92.4339ZM92.7749 12.9091C92.6442 12.9091 92.5315 12.8646 92.4368 12.7756C92.344 12.6866 92.2976 12.5795 92.2976 12.4545C92.2976 12.3295 92.344 12.2225 92.4368 12.1335C92.5315 12.0445 92.6442 12 92.7749 12C92.9055 12 93.0173 12.0445 93.1101 12.1335C93.2048 12.2225 93.2521 12.3295 93.2521 12.4545C93.2521 12.5795 93.2048 12.6866 93.1101 12.7756C93.0173 12.8646 92.9055 12.9091 92.7749 12.9091ZM96.1619 18.0909C95.7415 18.0909 95.3788 17.9981 95.0739 17.8125C94.7708 17.625 94.5369 17.3636 94.3722 17.0284C94.2093 16.6913 94.1278 16.2992 94.1278 15.8523C94.1278 15.4053 94.2093 15.0114 94.3722 14.6705C94.5369 14.3277 94.7661 14.0606 95.0597 13.8693C95.3551 13.6761 95.6998 13.5795 96.0938 13.5795C96.321 13.5795 96.5455 13.6174 96.767 13.6932C96.9886 13.7689 97.1903 13.892 97.3722 14.0625C97.554 14.2311 97.6989 14.4545 97.8068 14.733C97.9148 15.0114 97.9688 15.3542 97.9688 15.7614V16.0455H94.6051V15.4659H97.2869C97.2869 15.2197 97.2377 15 97.1392 14.8068C97.0426 14.6136 96.9044 14.4612 96.7244 14.3494C96.5464 14.2377 96.3362 14.1818 96.0938 14.1818C95.8267 14.1818 95.5956 14.2481 95.4006 14.3807C95.2074 14.5114 95.0587 14.6818 94.9545 14.892C94.8504 15.1023 94.7983 15.3277 94.7983 15.5682V15.9545C94.7983 16.2841 94.8551 16.5634 94.9688 16.7926C95.0843 17.0199 95.2443 17.1932 95.4489 17.3125C95.6534 17.4299 95.8911 17.4886 96.1619 17.4886C96.3381 17.4886 96.4972 17.464 96.6392 17.4148C96.7831 17.3636 96.9072 17.2879 97.0114 17.1875C97.1155 17.0852 97.196 16.9583 97.2528 16.8068L97.9006 16.9886C97.8324 17.2083 97.7178 17.4015 97.5568 17.5682C97.3958 17.733 97.197 17.8617 96.9602 17.9545C96.7235 18.0455 96.4574 18.0909 96.1619 18.0909ZM99.6591 12.1818V18H98.9886V12.1818H99.6591ZM102.535 18.0909C102.171 18.0909 101.85 17.9991 101.572 17.8153C101.293 17.6297 101.076 17.3684 100.918 17.0312C100.761 16.6922 100.683 16.2917 100.683 15.8295C100.683 15.3712 100.761 14.9735 100.918 14.6364C101.076 14.2992 101.294 14.0388 101.575 13.8551C101.855 13.6714 102.179 13.5795 102.546 13.5795C102.83 13.5795 103.055 13.6269 103.219 13.7216C103.386 13.8144 103.513 13.9205 103.6 14.0398C103.689 14.1572 103.758 14.2538 103.808 14.3295H103.864V12.1818H104.535V18H103.887V17.3295H103.808C103.758 17.4091 103.688 17.5095 103.597 17.6307C103.506 17.75 103.377 17.857 103.208 17.9517C103.04 18.0445 102.815 18.0909 102.535 18.0909ZM102.626 17.4886C102.895 17.4886 103.122 17.4186 103.308 17.2784C103.493 17.1364 103.634 16.9403 103.731 16.6903C103.827 16.4384 103.876 16.1477 103.876 15.8182C103.876 15.4924 103.828 15.2074 103.734 14.9631C103.639 14.7169 103.499 14.5256 103.313 14.3892C103.128 14.2509 102.898 14.1818 102.626 14.1818C102.342 14.1818 102.105 14.2547 101.915 14.4006C101.728 14.5445 101.587 14.7405 101.492 14.9886C101.399 15.2348 101.353 15.5114 101.353 15.8182C101.353 16.1288 101.4 16.411 101.495 16.6648C101.592 16.9167 101.734 17.1174 101.921 17.267C102.111 17.4148 102.345 17.4886 102.626 17.4886ZM106.344 18.0455C106.204 18.0455 106.084 17.9953 105.984 17.8949C105.883 17.7945 105.833 17.6742 105.833 17.5341C105.833 17.3939 105.883 17.2737 105.984 17.1733C106.084 17.0729 106.204 17.0227 106.344 17.0227C106.485 17.0227 106.605 17.0729 106.705 17.1733C106.806 17.2737 106.856 17.3939 106.856 17.5341C106.856 17.6269 106.832 17.7121 106.785 17.7898C106.739 17.8674 106.678 17.9299 106.6 17.9773C106.524 18.0227 106.439 18.0455 106.344 18.0455Z" fill="black"/>
<defs>
<filter id="filter0_d_24_121" x="3.93784" y="0" width="20.1243" height="14.75" filterUnits="userSpaceOnUse" color-interpolation-filters="sRGB">
<feFlood flood-opacity="0" result="BackgroundImageFix"/>
<feColorMatrix in="SourceAlpha" type="matrix" values="0 0 0 0 0 0 0 0 0 0 0 0 0 0 0 0 0 0 127 0" result="hardAlpha"/>
<feOffset dy="4"/>
<feGaussianBlur stdDeviation="2"/>
<feComposite in2="hardAlpha" operator="out"/>
<feColorMatrix type="matrix" values="0 0 0 0 0 0 0 0 0 0 0 0 0 0 0 0 0 0 0.25 0"/>
<feBlend mode="normal" in2="BackgroundImageFix" result="effect1_dropShadow_24_121"/>
<feBlend mode="normal" in="SourceGraphic" in2="effect1_dropShadow_24_121" result="shape"/>
</filter>
</defs>
</svg>
