<svg width="155" height="38" viewBox="0 0 155 38" fill="none" xmlns="http://www.w3.org/2000/svg">
<rect width="142" height="20" rx="2" fill="#F1F1F1"/>
<path opacity="0.8" d="M25.2045 7.18182H26.0114L27.625 9.89773H27.6932L29.3068 7.18182H30.1136L28.0114 10.6023V13H27.3068V10.6023L25.2045 7.18182ZM32.0895 13.0909C31.6955 13.0909 31.3499 12.9972 31.0526 12.8097C30.7571 12.6222 30.526 12.3598 30.3594 12.0227C30.1946 11.6856 30.1122 11.2917 30.1122 10.8409C30.1122 10.3864 30.1946 9.98958 30.3594 9.65057C30.526 9.31155 30.7571 9.0483 31.0526 8.8608C31.3499 8.6733 31.6955 8.57955 32.0895 8.57955C32.4834 8.57955 32.8281 8.6733 33.1236 8.8608C33.4209 9.0483 33.652 9.31155 33.8168 9.65057C33.9834 9.98958 34.0668 10.3864 34.0668 10.8409C34.0668 11.2917 33.9834 11.6856 33.8168 12.0227C33.652 12.3598 33.4209 12.6222 33.1236 12.8097C32.8281 12.9972 32.4834 13.0909 32.0895 13.0909ZM32.0895 12.4886C32.3887 12.4886 32.6349 12.4119 32.8281 12.2585C33.0213 12.1051 33.1643 11.9034 33.2571 11.6534C33.3499 11.4034 33.3963 11.1326 33.3963 10.8409C33.3963 10.5492 33.3499 10.2775 33.2571 10.0256C33.1643 9.77367 33.0213 9.57008 32.8281 9.41477C32.6349 9.25947 32.3887 9.18182 32.0895 9.18182C31.7902 9.18182 31.544 9.25947 31.3509 9.41477C31.1577 9.57008 31.0147 9.77367 30.9219 10.0256C30.8291 10.2775 30.7827 10.5492 30.7827 10.8409C30.7827 11.1326 30.8291 11.4034 30.9219 11.6534C31.0147 11.9034 31.1577 12.1051 31.3509 12.2585C31.544 12.4119 31.7902 12.4886 32.0895 12.4886ZM37.8402 11.2159V8.63636H38.5107V13H37.8402V12.2614H37.7947C37.6925 12.483 37.5334 12.6714 37.3175 12.8267C37.1016 12.9801 36.8288 13.0568 36.4993 13.0568C36.2266 13.0568 35.9841 12.9972 35.772 12.8778C35.5599 12.7566 35.3932 12.5748 35.272 12.3324C35.1508 12.0881 35.0902 11.7803 35.0902 11.4091V8.63636H35.7607V11.3636C35.7607 11.6818 35.8497 11.9356 36.0277 12.125C36.2076 12.3144 36.4368 12.4091 36.7152 12.4091C36.8819 12.4091 37.0514 12.3665 37.2237 12.2812C37.398 12.196 37.5438 12.0653 37.6612 11.8892C37.7805 11.7131 37.8402 11.4886 37.8402 11.2159ZM39.7386 13V8.63636H40.3864V9.29545H40.4318C40.5114 9.07955 40.6553 8.90436 40.8636 8.76989C41.072 8.63542 41.3068 8.56818 41.5682 8.56818C41.6174 8.56818 41.679 8.56913 41.7528 8.57102C41.8267 8.57292 41.8826 8.57576 41.9205 8.57955V9.26136C41.8977 9.25568 41.8456 9.24716 41.7642 9.2358C41.6847 9.22254 41.6004 9.21591 41.5114 9.21591C41.2992 9.21591 41.1098 9.26042 40.9432 9.34943C40.7784 9.43655 40.6477 9.55777 40.5511 9.71307C40.4564 9.86648 40.4091 10.0417 40.4091 10.2386V13H39.7386ZM44.9652 13V8.63636H45.6129V9.31818H45.6697C45.7607 9.08523 45.9074 8.90436 46.1101 8.77557C46.3127 8.64489 46.5561 8.57955 46.8402 8.57955C47.1281 8.57955 47.3677 8.64489 47.5589 8.77557C47.7521 8.90436 47.9027 9.08523 48.0107 9.31818H48.0561C48.1679 9.0928 48.3355 8.91383 48.5589 8.78125C48.7824 8.64678 49.0504 8.57955 49.3629 8.57955C49.7531 8.57955 50.0722 8.7017 50.3203 8.94602C50.5684 9.18845 50.6925 9.56629 50.6925 10.0795V13H50.022V10.0795C50.022 9.75758 49.9339 9.52746 49.7578 9.3892C49.5817 9.25095 49.3743 9.18182 49.1357 9.18182C48.8288 9.18182 48.5911 9.27462 48.4226 9.46023C48.254 9.64394 48.1697 9.87689 48.1697 10.1591V13H47.4879V10.0114C47.4879 9.76326 47.4074 9.56345 47.2464 9.41193C47.0855 9.25852 46.8781 9.18182 46.6243 9.18182C46.45 9.18182 46.2872 9.22822 46.1357 9.32102C45.986 9.41383 45.8648 9.54261 45.772 9.70739C45.6811 9.87027 45.6357 10.0587 45.6357 10.2727V13H44.9652ZM53.7479 13.0909C53.3274 13.0909 52.9647 12.9981 52.6598 12.8125C52.3568 12.625 52.1229 12.3636 51.9581 12.0284C51.7952 11.6913 51.7138 11.2992 51.7138 10.8523C51.7138 10.4053 51.7952 10.0114 51.9581 9.67045C52.1229 9.32765 52.352 9.06061 52.6456 8.86932C52.9411 8.67614 53.2857 8.57955 53.6797 8.57955C53.907 8.57955 54.1314 8.61742 54.353 8.69318C54.5746 8.76894 54.7763 8.89205 54.9581 9.0625C55.1399 9.23106 55.2848 9.45455 55.3928 9.73295C55.5007 10.0114 55.5547 10.3542 55.5547 10.7614V11.0455H52.1911V10.4659H54.8729C54.8729 10.2197 54.8236 10 54.7251 9.80682C54.6286 9.61364 54.4903 9.46117 54.3104 9.34943C54.1323 9.23769 53.9221 9.18182 53.6797 9.18182C53.4126 9.18182 53.1816 9.24811 52.9865 9.38068C52.7933 9.51136 52.6446 9.68182 52.5405 9.89205C52.4363 10.1023 52.3842 10.3277 52.3842 10.5682V10.9545C52.3842 11.2841 52.4411 11.5634 52.5547 11.7926C52.6702 12.0199 52.8303 12.1932 53.0348 12.3125C53.2393 12.4299 53.477 12.4886 53.7479 12.4886C53.924 12.4886 54.0831 12.464 54.2251 12.4148C54.3691 12.3636 54.4931 12.2879 54.5973 12.1875C54.7015 12.0852 54.782 11.9583 54.8388 11.8068L55.4865 11.9886C55.4183 12.2083 55.3037 12.4015 55.1428 12.5682C54.9818 12.733 54.7829 12.8617 54.5462 12.9545C54.3094 13.0455 54.0433 13.0909 53.7479 13.0909ZM59.6655 9.61364L59.0632 9.78409C59.0253 9.68371 58.9695 9.58617 58.8956 9.49148C58.8236 9.39489 58.7251 9.31534 58.6001 9.25284C58.4751 9.19034 58.3151 9.15909 58.12 9.15909C57.853 9.15909 57.6304 9.22064 57.4524 9.34375C57.2763 9.46496 57.1882 9.61932 57.1882 9.80682C57.1882 9.97348 57.2488 10.1051 57.37 10.2017C57.4912 10.2983 57.6806 10.3788 57.9382 10.4432L58.5859 10.6023C58.9761 10.697 59.2668 10.8419 59.4581 11.0369C59.6494 11.2301 59.745 11.4792 59.745 11.7841C59.745 12.0341 59.6731 12.2576 59.5291 12.4545C59.3871 12.6515 59.1882 12.8068 58.9325 12.9205C58.6768 13.0341 58.3795 13.0909 58.0405 13.0909C57.5954 13.0909 57.227 12.9943 56.9354 12.8011C56.6437 12.608 56.459 12.3258 56.3814 11.9545L57.0178 11.7955C57.0784 12.0303 57.1929 12.2064 57.3615 12.3239C57.532 12.4413 57.7545 12.5 58.0291 12.5C58.3416 12.5 58.5897 12.4337 58.7734 12.3011C58.959 12.1667 59.0518 12.0057 59.0518 11.8182C59.0518 11.6667 58.9988 11.5398 58.8928 11.4375C58.7867 11.3333 58.6238 11.2557 58.4041 11.2045L57.6768 11.0341C57.2772 10.9394 56.9837 10.7926 56.7962 10.5938C56.6106 10.393 56.5178 10.142 56.5178 9.84091C56.5178 9.5947 56.5869 9.37689 56.7251 9.1875C56.8653 8.99811 57.0556 8.84943 57.2962 8.74148C57.5386 8.63352 57.8132 8.57955 58.12 8.57955C58.5518 8.57955 58.8909 8.67424 59.1371 8.86364C59.3852 9.05303 59.5613 9.30303 59.6655 9.61364ZM63.8452 9.61364L63.2429 9.78409C63.205 9.68371 63.1491 9.58617 63.0753 9.49148C63.0033 9.39489 62.9048 9.31534 62.7798 9.25284C62.6548 9.19034 62.4948 9.15909 62.2997 9.15909C62.0327 9.15909 61.8101 9.22064 61.6321 9.34375C61.456 9.46496 61.3679 9.61932 61.3679 9.80682C61.3679 9.97348 61.4285 10.1051 61.5497 10.2017C61.6709 10.2983 61.8603 10.3788 62.1179 10.4432L62.7656 10.6023C63.1558 10.697 63.4465 10.8419 63.6378 11.0369C63.8291 11.2301 63.9247 11.4792 63.9247 11.7841C63.9247 12.0341 63.8527 12.2576 63.7088 12.4545C63.5668 12.6515 63.3679 12.8068 63.1122 12.9205C62.8565 13.0341 62.5592 13.0909 62.2202 13.0909C61.7751 13.0909 61.4067 12.9943 61.1151 12.8011C60.8234 12.608 60.6387 12.3258 60.5611 11.9545L61.1974 11.7955C61.258 12.0303 61.3726 12.2064 61.5412 12.3239C61.7116 12.4413 61.9342 12.5 62.2088 12.5C62.5213 12.5 62.7694 12.4337 62.9531 12.3011C63.1387 12.1667 63.2315 12.0057 63.2315 11.8182C63.2315 11.6667 63.1785 11.5398 63.0724 11.4375C62.9664 11.3333 62.8035 11.2557 62.5838 11.2045L61.8565 11.0341C61.4569 10.9394 61.1634 10.7926 60.9759 10.5938C60.7902 10.393 60.6974 10.142 60.6974 9.84091C60.6974 9.5947 60.7666 9.37689 60.9048 9.1875C61.045 8.99811 61.2353 8.84943 61.4759 8.74148C61.7183 8.63352 61.9929 8.57955 62.2997 8.57955C62.7315 8.57955 63.0705 8.67424 63.3168 8.86364C63.5649 9.05303 63.741 9.30303 63.8452 9.61364ZM66.218 13.1023C65.9415 13.1023 65.6906 13.0502 65.4652 12.946C65.2398 12.84 65.0608 12.6875 64.9283 12.4886C64.7957 12.2879 64.7294 12.0455 64.7294 11.7614C64.7294 11.5114 64.7786 11.3087 64.8771 11.1534C64.9756 10.9962 65.1072 10.8731 65.272 10.7841C65.4368 10.6951 65.6186 10.6288 65.8175 10.5852C66.0182 10.5398 66.2199 10.5038 66.4226 10.4773C66.6877 10.4432 66.9027 10.4176 67.0675 10.4006C67.2341 10.3816 67.3554 10.3504 67.4311 10.3068C67.5088 10.2633 67.5476 10.1875 67.5476 10.0795V10.0568C67.5476 9.77652 67.4709 9.55871 67.3175 9.40341C67.166 9.24811 66.9358 9.17045 66.6271 9.17045C66.3071 9.17045 66.0561 9.24053 65.8743 9.38068C65.6925 9.52083 65.5646 9.67045 65.4908 9.82955L64.8544 9.60227C64.968 9.33712 65.1196 9.13068 65.3089 8.98295C65.5002 8.83333 65.7086 8.72917 65.9339 8.67045C66.1612 8.60985 66.3847 8.57955 66.6044 8.57955C66.7446 8.57955 66.9055 8.59659 67.0874 8.63068C67.2711 8.66288 67.4482 8.73011 67.6186 8.83239C67.791 8.93466 67.9339 9.08902 68.0476 9.29545C68.1612 9.50189 68.218 9.77841 68.218 10.125V13H67.5476V12.4091H67.5135C67.468 12.5038 67.3923 12.6051 67.2862 12.7131C67.1802 12.821 67.0391 12.9129 66.8629 12.9886C66.6868 13.0644 66.4718 13.1023 66.218 13.1023ZM66.3203 12.5C66.5855 12.5 66.8089 12.4479 66.9908 12.3438C67.1745 12.2396 67.3127 12.1051 67.4055 11.9403C67.5002 11.7756 67.5476 11.6023 67.5476 11.4205V10.8068C67.5192 10.8409 67.4567 10.8722 67.3601 10.9006C67.2654 10.9271 67.1555 10.9508 67.0305 10.9716C66.9074 10.9905 66.7872 11.0076 66.6697 11.0227C66.5542 11.036 66.4605 11.0473 66.3885 11.0568C66.2143 11.0795 66.0514 11.1165 65.8999 11.1676C65.7502 11.2169 65.629 11.2917 65.5362 11.392C65.4453 11.4905 65.3999 11.625 65.3999 11.7955C65.3999 12.0284 65.486 12.2045 65.6584 12.3239C65.8326 12.4413 66.0533 12.5 66.3203 12.5ZM71.2031 14.7273C70.8793 14.7273 70.6009 14.6856 70.3679 14.6023C70.1349 14.5208 69.9408 14.4129 69.7855 14.2784C69.6321 14.1458 69.5099 14.0038 69.419 13.8523L69.9531 13.4773C70.0137 13.5568 70.0904 13.6477 70.1832 13.75C70.276 13.8542 70.4029 13.9441 70.5639 14.0199C70.7268 14.0975 70.9399 14.1364 71.2031 14.1364C71.5554 14.1364 71.8461 14.0511 72.0753 13.8807C72.3045 13.7102 72.419 13.4432 72.419 13.0795V12.1932H72.3622C72.313 12.2727 72.2429 12.3712 72.152 12.4886C72.063 12.6042 71.9342 12.7074 71.7656 12.7983C71.599 12.8873 71.3736 12.9318 71.0895 12.9318C70.7372 12.9318 70.4209 12.8485 70.1406 12.6818C69.8622 12.5152 69.6416 12.2727 69.4787 11.9545C69.3177 11.6364 69.2372 11.25 69.2372 10.7955C69.2372 10.3485 69.3158 9.95928 69.473 9.62784C69.6302 9.29451 69.849 9.03693 70.1293 8.85511C70.4096 8.6714 70.7334 8.57955 71.1009 8.57955C71.3849 8.57955 71.6103 8.62689 71.777 8.72159C71.9455 8.81439 72.0743 8.92045 72.1634 9.03977C72.2543 9.1572 72.3243 9.25379 72.3736 9.32955H72.4418V8.63636H73.0895V13.125C73.0895 13.5 73.0043 13.8049 72.8338 14.0398C72.6652 14.2765 72.438 14.4498 72.152 14.5597C71.8679 14.6714 71.5516 14.7273 71.2031 14.7273ZM71.1804 12.3295C71.4493 12.3295 71.6766 12.268 71.8622 12.1449C72.0478 12.0218 72.1889 11.8447 72.2855 11.6136C72.3821 11.3826 72.4304 11.1061 72.4304 10.7841C72.4304 10.4697 72.383 10.1922 72.2884 9.9517C72.1937 9.71117 72.0535 9.52273 71.8679 9.38636C71.6823 9.25 71.4531 9.18182 71.1804 9.18182C70.8963 9.18182 70.6596 9.25379 70.4702 9.39773C70.2827 9.54167 70.1416 9.73485 70.0469 9.97727C69.9541 10.2197 69.9077 10.4886 69.9077 10.7841C69.9077 11.0871 69.955 11.3551 70.0497 11.5881C70.1463 11.8191 70.2884 12.0009 70.4759 12.1335C70.6652 12.2642 70.9001 12.3295 71.1804 12.3295ZM76.1463 13.0909C75.7259 13.0909 75.3632 12.9981 75.0582 12.8125C74.7552 12.625 74.5213 12.3636 74.3565 12.0284C74.1937 11.6913 74.1122 11.2992 74.1122 10.8523C74.1122 10.4053 74.1937 10.0114 74.3565 9.67045C74.5213 9.32765 74.7505 9.06061 75.044 8.86932C75.3395 8.67614 75.6842 8.57955 76.0781 8.57955C76.3054 8.57955 76.5298 8.61742 76.7514 8.69318C76.973 8.76894 77.1747 8.89205 77.3565 9.0625C77.5384 9.23106 77.6832 9.45455 77.7912 9.73295C77.8991 10.0114 77.9531 10.3542 77.9531 10.7614V11.0455H74.5895V10.4659H77.2713C77.2713 10.2197 77.2221 10 77.1236 9.80682C77.027 9.61364 76.8887 9.46117 76.7088 9.34943C76.5308 9.23769 76.3205 9.18182 76.0781 9.18182C75.8111 9.18182 75.58 9.24811 75.3849 9.38068C75.1918 9.51136 75.0431 9.68182 74.9389 9.89205C74.8348 10.1023 74.7827 10.3277 74.7827 10.5682V10.9545C74.7827 11.2841 74.8395 11.5634 74.9531 11.7926C75.0687 12.0199 75.2287 12.1932 75.4332 12.3125C75.6378 12.4299 75.8755 12.4886 76.1463 12.4886C76.3224 12.4886 76.4815 12.464 76.6236 12.4148C76.7675 12.3636 76.8916 12.2879 76.9957 12.1875C77.0999 12.0852 77.1804 11.9583 77.2372 11.8068L77.8849 11.9886C77.8168 12.2083 77.7022 12.4015 77.5412 12.5682C77.3802 12.733 77.1813 12.8617 76.9446 12.9545C76.7079 13.0455 76.4418 13.0909 76.1463 13.0909ZM81.8935 10.375V13H81.223V7.18182H81.8935V9.31818H81.9503C82.0526 9.0928 82.206 8.91383 82.4105 8.78125C82.617 8.64678 82.8916 8.57955 83.2344 8.57955C83.5317 8.57955 83.7921 8.6392 84.0156 8.75852C84.2391 8.87595 84.4124 9.05682 84.5355 9.30114C84.6605 9.54356 84.723 9.85227 84.723 10.2273V13H84.0526V10.2727C84.0526 9.92614 83.9626 9.65814 83.7827 9.46875C83.6046 9.27746 83.3575 9.18182 83.0412 9.18182C82.8215 9.18182 82.6245 9.22822 82.4503 9.32102C82.2779 9.41383 82.1416 9.54924 82.0412 9.72727C81.9427 9.9053 81.8935 10.1212 81.8935 10.375ZM87.2337 13.1023C86.9571 13.1023 86.7062 13.0502 86.4808 12.946C86.2554 12.84 86.0765 12.6875 85.9439 12.4886C85.8113 12.2879 85.745 12.0455 85.745 11.7614C85.745 11.5114 85.7943 11.3087 85.8928 11.1534C85.9912 10.9962 86.1229 10.8731 86.2876 10.7841C86.4524 10.6951 86.6342 10.6288 86.8331 10.5852C87.0339 10.5398 87.2356 10.5038 87.4382 10.4773C87.7034 10.4432 87.9183 10.4176 88.0831 10.4006C88.2498 10.3816 88.371 10.3504 88.4467 10.3068C88.5244 10.2633 88.5632 10.1875 88.5632 10.0795V10.0568C88.5632 9.77652 88.4865 9.55871 88.3331 9.40341C88.1816 9.24811 87.9515 9.17045 87.6428 9.17045C87.3227 9.17045 87.0717 9.24053 86.8899 9.38068C86.7081 9.52083 86.5803 9.67045 86.5064 9.82955L85.87 9.60227C85.9837 9.33712 86.1352 9.13068 86.3246 8.98295C86.5159 8.83333 86.7242 8.72917 86.9496 8.67045C87.1768 8.60985 87.4003 8.57955 87.62 8.57955C87.7602 8.57955 87.9212 8.59659 88.103 8.63068C88.2867 8.66288 88.4638 8.73011 88.6342 8.83239C88.8066 8.93466 88.9496 9.08902 89.0632 9.29545C89.1768 9.50189 89.2337 9.77841 89.2337 10.125V13H88.5632V12.4091H88.5291C88.4837 12.5038 88.4079 12.6051 88.3018 12.7131C88.1958 12.821 88.0547 12.9129 87.8786 12.9886C87.7024 13.0644 87.4875 13.1023 87.2337 13.1023ZM87.3359 12.5C87.6011 12.5 87.8246 12.4479 88.0064 12.3438C88.1901 12.2396 88.3284 12.1051 88.4212 11.9403C88.5159 11.7756 88.5632 11.6023 88.5632 11.4205V10.8068C88.5348 10.8409 88.4723 10.8722 88.3757 10.9006C88.281 10.9271 88.1712 10.9508 88.0462 10.9716C87.9231 10.9905 87.8028 11.0076 87.6854 11.0227C87.5698 11.036 87.4761 11.0473 87.4041 11.0568C87.2299 11.0795 87.067 11.1165 86.9155 11.1676C86.7659 11.2169 86.6446 11.2917 86.5518 11.392C86.4609 11.4905 86.4155 11.625 86.4155 11.7955C86.4155 12.0284 86.5017 12.2045 86.674 12.3239C86.8482 12.4413 87.0689 12.5 87.3359 12.5ZM93.5483 9.61364L92.946 9.78409C92.9081 9.68371 92.8523 9.58617 92.7784 9.49148C92.7064 9.39489 92.608 9.31534 92.483 9.25284C92.358 9.19034 92.1979 9.15909 92.0028 9.15909C91.7358 9.15909 91.5133 9.22064 91.3352 9.34375C91.1591 9.46496 91.071 9.61932 91.071 9.80682C91.071 9.97348 91.1316 10.1051 91.2528 10.2017C91.3741 10.2983 91.5634 10.3788 91.821 10.4432L92.4688 10.6023C92.8589 10.697 93.1496 10.8419 93.3409 11.0369C93.5322 11.2301 93.6278 11.4792 93.6278 11.7841C93.6278 12.0341 93.5559 12.2576 93.4119 12.4545C93.2699 12.6515 93.071 12.8068 92.8153 12.9205C92.5597 13.0341 92.2623 13.0909 91.9233 13.0909C91.4782 13.0909 91.1098 12.9943 90.8182 12.8011C90.5265 12.608 90.3419 12.3258 90.2642 11.9545L90.9006 11.7955C90.9612 12.0303 91.0758 12.2064 91.2443 12.3239C91.4148 12.4413 91.6373 12.5 91.9119 12.5C92.2244 12.5 92.4725 12.4337 92.6562 12.3011C92.8419 12.1667 92.9347 12.0057 92.9347 11.8182C92.9347 11.6667 92.8816 11.5398 92.7756 11.4375C92.6695 11.3333 92.5066 11.2557 92.2869 11.2045L91.5597 11.0341C91.16 10.9394 90.8665 10.7926 90.679 10.5938C90.4934 10.393 90.4006 10.142 90.4006 9.84091C90.4006 9.5947 90.4697 9.37689 90.608 9.1875C90.7481 8.99811 90.9384 8.84943 91.179 8.74148C91.4214 8.63352 91.696 8.57955 92.0028 8.57955C92.4347 8.57955 92.7737 8.67424 93.0199 8.86364C93.268 9.05303 93.4441 9.30303 93.5483 9.61364ZM96.978 13V7.18182H97.6484V9.32955H97.7053C97.7545 9.25379 97.8227 9.1572 97.9098 9.03977C97.9988 8.92045 98.1257 8.81439 98.2905 8.72159C98.4571 8.62689 98.6825 8.57955 98.9666 8.57955C99.334 8.57955 99.6579 8.6714 99.9382 8.85511C100.219 9.03883 100.437 9.29924 100.594 9.63636C100.752 9.97348 100.83 10.3712 100.83 10.8295C100.83 11.2917 100.752 11.6922 100.594 12.0312C100.437 12.3684 100.219 12.6297 99.9411 12.8153C99.6626 12.9991 99.3416 13.0909 98.978 13.0909C98.6977 13.0909 98.4732 13.0445 98.3047 12.9517C98.1361 12.857 98.0064 12.75 97.9155 12.6307C97.8246 12.5095 97.7545 12.4091 97.7053 12.3295H97.6257V13H96.978ZM97.6371 10.8182C97.6371 11.1477 97.6854 11.4384 97.782 11.6903C97.8786 11.9403 98.0196 12.1364 98.2053 12.2784C98.3909 12.4186 98.6181 12.4886 98.8871 12.4886C99.1674 12.4886 99.4013 12.4148 99.5888 12.267C99.7782 12.1174 99.9202 11.9167 100.015 11.6648C100.112 11.411 100.16 11.1288 100.16 10.8182C100.16 10.5114 100.112 10.2348 100.018 9.98864C99.925 9.74053 99.7839 9.54451 99.5945 9.40057C99.407 9.25473 99.1712 9.18182 98.8871 9.18182C98.6143 9.18182 98.3852 9.25095 98.1996 9.3892C98.014 9.52557 97.8738 9.71686 97.7791 9.96307C97.6844 10.2074 97.6371 10.4924 97.6371 10.8182ZM103.685 13.0909C103.265 13.0909 102.902 12.9981 102.597 12.8125C102.294 12.625 102.06 12.3636 101.896 12.0284C101.733 11.6913 101.651 11.2992 101.651 10.8523C101.651 10.4053 101.733 10.0114 101.896 9.67045C102.06 9.32765 102.29 9.06061 102.583 8.86932C102.879 8.67614 103.223 8.57955 103.617 8.57955C103.844 8.57955 104.069 8.61742 104.29 8.69318C104.512 8.76894 104.714 8.89205 104.896 9.0625C105.077 9.23106 105.222 9.45455 105.33 9.73295C105.438 10.0114 105.492 10.3542 105.492 10.7614V11.0455H102.129V10.4659H104.81C104.81 10.2197 104.761 10 104.663 9.80682C104.566 9.61364 104.428 9.46117 104.248 9.34943C104.07 9.23769 103.86 9.18182 103.617 9.18182C103.35 9.18182 103.119 9.24811 102.924 9.38068C102.731 9.51136 102.582 9.68182 102.478 9.89205C102.374 10.1023 102.322 10.3277 102.322 10.5682V10.9545C102.322 11.2841 102.379 11.5634 102.492 11.7926C102.608 12.0199 102.768 12.1932 102.972 12.3125C103.177 12.4299 103.415 12.4886 103.685 12.4886C103.862 12.4886 104.021 12.464 104.163 12.4148C104.307 12.3636 104.431 12.2879 104.535 12.1875C104.639 12.0852 104.719 11.9583 104.776 11.8068L105.424 11.9886C105.356 12.2083 105.241 12.4015 105.08 12.5682C104.919 12.733 104.72 12.8617 104.484 12.9545C104.247 13.0455 103.981 13.0909 103.685 13.0909ZM108.342 13.0909C107.921 13.0909 107.558 12.9981 107.254 12.8125C106.951 12.625 106.717 12.3636 106.552 12.0284C106.389 11.6913 106.308 11.2992 106.308 10.8523C106.308 10.4053 106.389 10.0114 106.552 9.67045C106.717 9.32765 106.946 9.06061 107.239 8.86932C107.535 8.67614 107.879 8.57955 108.273 8.57955C108.501 8.57955 108.725 8.61742 108.947 8.69318C109.168 8.76894 109.37 8.89205 109.552 9.0625C109.734 9.23106 109.879 9.45455 109.987 9.73295C110.094 10.0114 110.148 10.3542 110.148 10.7614V11.0455H106.785V10.4659H109.467C109.467 10.2197 109.417 10 109.319 9.80682C109.222 9.61364 109.084 9.46117 108.904 9.34943C108.726 9.23769 108.516 9.18182 108.273 9.18182C108.006 9.18182 107.775 9.24811 107.58 9.38068C107.387 9.51136 107.238 9.68182 107.134 9.89205C107.03 10.1023 106.978 10.3277 106.978 10.5682V10.9545C106.978 11.2841 107.035 11.5634 107.148 11.7926C107.264 12.0199 107.424 12.1932 107.629 12.3125C107.833 12.4299 108.071 12.4886 108.342 12.4886C108.518 12.4886 108.677 12.464 108.819 12.4148C108.963 12.3636 109.087 12.2879 109.191 12.1875C109.295 12.0852 109.376 11.9583 109.433 11.8068L110.08 11.9886C110.012 12.2083 109.897 12.4015 109.737 12.5682C109.576 12.733 109.377 12.8617 109.14 12.9545C108.903 13.0455 108.637 13.0909 108.342 13.0909ZM111.839 10.375V13H111.168V8.63636H111.816V9.31818H111.873C111.975 9.09659 112.13 8.91856 112.339 8.78409C112.547 8.64773 112.816 8.57955 113.146 8.57955C113.441 8.57955 113.7 8.64015 113.921 8.76136C114.143 8.88068 114.315 9.0625 114.438 9.30682C114.561 9.54924 114.623 9.85606 114.623 10.2273V13H113.952V10.2727C113.952 9.92992 113.863 9.66288 113.685 9.47159C113.507 9.27841 113.263 9.18182 112.952 9.18182C112.738 9.18182 112.547 9.22822 112.379 9.32102C112.212 9.41383 112.08 9.54924 111.984 9.72727C111.887 9.9053 111.839 10.1212 111.839 10.375ZM121.189 9.61364L120.587 9.78409C120.549 9.68371 120.493 9.58617 120.419 9.49148C120.347 9.39489 120.249 9.31534 120.124 9.25284C119.999 9.19034 119.839 9.15909 119.643 9.15909C119.376 9.15909 119.154 9.22064 118.976 9.34375C118.8 9.46496 118.712 9.61932 118.712 9.80682C118.712 9.97348 118.772 10.1051 118.893 10.2017C119.015 10.2983 119.204 10.3788 119.462 10.4432L120.109 10.6023C120.5 10.697 120.79 10.8419 120.982 11.0369C121.173 11.2301 121.268 11.4792 121.268 11.7841C121.268 12.0341 121.196 12.2576 121.053 12.4545C120.911 12.6515 120.712 12.8068 120.456 12.9205C120.2 13.0341 119.903 13.0909 119.564 13.0909C119.119 13.0909 118.75 12.9943 118.459 12.8011C118.167 12.608 117.982 12.3258 117.905 11.9545L118.541 11.7955C118.602 12.0303 118.716 12.2064 118.885 12.3239C119.055 12.4413 119.278 12.5 119.553 12.5C119.865 12.5 120.113 12.4337 120.297 12.3011C120.482 12.1667 120.575 12.0057 120.575 11.8182C120.575 11.6667 120.522 11.5398 120.416 11.4375C120.31 11.3333 120.147 11.2557 119.928 11.2045L119.2 11.0341C118.801 10.9394 118.507 10.7926 118.32 10.5938C118.134 10.393 118.041 10.142 118.041 9.84091C118.041 9.5947 118.11 9.37689 118.249 9.1875C118.389 8.99811 118.579 8.84943 118.82 8.74148C119.062 8.63352 119.337 8.57955 119.643 8.57955C120.075 8.57955 120.414 8.67424 120.661 8.86364C120.909 9.05303 121.085 9.30303 121.189 9.61364ZM124.107 13.0909C123.687 13.0909 123.324 12.9981 123.019 12.8125C122.716 12.625 122.482 12.3636 122.317 12.0284C122.155 11.6913 122.073 11.2992 122.073 10.8523C122.073 10.4053 122.155 10.0114 122.317 9.67045C122.482 9.32765 122.711 9.06061 123.005 8.86932C123.3 8.67614 123.645 8.57955 124.039 8.57955C124.266 8.57955 124.491 8.61742 124.712 8.69318C124.934 8.76894 125.136 8.89205 125.317 9.0625C125.499 9.23106 125.644 9.45455 125.752 9.73295C125.86 10.0114 125.914 10.3542 125.914 10.7614V11.0455H122.55V10.4659H125.232C125.232 10.2197 125.183 10 125.085 9.80682C124.988 9.61364 124.85 9.46117 124.67 9.34943C124.492 9.23769 124.281 9.18182 124.039 9.18182C123.772 9.18182 123.541 9.24811 123.346 9.38068C123.153 9.51136 123.004 9.68182 122.9 9.89205C122.796 10.1023 122.744 10.3277 122.744 10.5682V10.9545C122.744 11.2841 122.8 11.5634 122.914 11.7926C123.03 12.0199 123.19 12.1932 123.394 12.3125C123.599 12.4299 123.836 12.4886 124.107 12.4886C124.283 12.4886 124.442 12.464 124.585 12.4148C124.728 12.3636 124.853 12.2879 124.957 12.1875C125.061 12.0852 125.141 11.9583 125.198 11.8068L125.846 11.9886C125.778 12.2083 125.663 12.4015 125.502 12.5682C125.341 12.733 125.142 12.8617 124.906 12.9545C124.669 13.0455 124.403 13.0909 124.107 13.0909ZM127.604 10.375V13H126.934V8.63636H127.582V9.31818H127.638C127.741 9.09659 127.896 8.91856 128.104 8.78409C128.313 8.64773 128.582 8.57955 128.911 8.57955C129.207 8.57955 129.465 8.64015 129.687 8.76136C129.908 8.88068 130.081 9.0625 130.204 9.30682C130.327 9.54924 130.388 9.85606 130.388 10.2273V13H129.718V10.2727C129.718 9.92992 129.629 9.66288 129.451 9.47159C129.273 9.27841 129.029 9.18182 128.718 9.18182C128.504 9.18182 128.313 9.22822 128.144 9.32102C127.978 9.41383 127.846 9.54924 127.749 9.72727C127.653 9.9053 127.604 10.1212 127.604 10.375ZM133.511 8.63636V9.20455H131.25V8.63636H133.511ZM131.909 7.59091H132.58V11.75C132.58 11.9394 132.607 12.0814 132.662 12.1761C132.719 12.2689 132.791 12.3314 132.878 12.3636C132.967 12.3939 133.061 12.4091 133.159 12.4091C133.233 12.4091 133.294 12.4053 133.341 12.3977C133.388 12.3883 133.426 12.3807 133.455 12.375L133.591 12.9773C133.545 12.9943 133.482 13.0114 133.401 13.0284C133.319 13.0473 133.216 13.0568 133.091 13.0568C132.902 13.0568 132.716 13.0161 132.534 12.9347C132.354 12.8532 132.205 12.7292 132.085 12.5625C131.968 12.3958 131.909 12.1856 131.909 11.9318V7.59091ZM135.406 7.18182L135.349 11.3636H134.69L134.634 7.18182H135.406ZM135.02 13.0455C134.88 13.0455 134.759 12.9953 134.659 12.8949C134.559 12.7945 134.509 12.6742 134.509 12.5341C134.509 12.3939 134.559 12.2737 134.659 12.1733C134.759 12.0729 134.88 12.0227 135.02 12.0227C135.16 12.0227 135.28 12.0729 135.381 12.1733C135.481 12.2737 135.531 12.3939 135.531 12.5341C135.531 12.6269 135.508 12.7121 135.46 12.7898C135.415 12.8674 135.353 12.9299 135.276 12.9773C135.2 13.0227 135.115 13.0455 135.02 13.0455Z" fill="black"/>
<rect x="10" y="5" width="11" height="10" rx="1" fill="#004FAA"/>
<rect width="0.827674" height="3.03108" transform="matrix(0.655904 -0.754844 0.654233 0.756293 13.0594 9.91406)" fill="white"/>
<rect width="0.834717" height="5.25253" transform="matrix(0.66371 0.74799 -0.646253 0.763123 18.3752 7.01154)" fill="white"/>
</svg>
